<svg width="832" height="17" viewBox="0 0 832 17" fill="none" xmlns="http://www.w3.org/2000/svg"><path fill-rule="evenodd" clip-rule="evenodd" d="M198.717 6.55353C200.992 3.78847 203.82 0.349365 209.35 0.349365C209.4 0.349365 209.45 0.350824 209.5 0.353702C209.55 0.350824 209.6 0.349365 209.65 0.349365C215.177 0.349365 218.003 3.79095 220.275 6.55786L220.276 6.55932C222.517 9.29149 223.93 10.8366 226.87 10.8366C229.81 10.8366 231.223 9.29149 233.464 6.55932L233.465 6.55805C235.737 3.79246 238.565 0.349365 244.092 0.349365C249.615 0.349365 252.441 3.79216 254.71 6.55932C256.951 9.29149 258.362 10.8366 261.299 10.8366C264.236 10.8366 265.649 9.29149 267.89 6.55932L267.895 6.55408C270.166 3.78916 272.992 0.349365 278.514 0.349365C284.041 0.349365 286.869 3.79239 289.141 6.55797L289.142 6.55932C291.383 9.29149 292.796 10.8366 295.736 10.8366C298.679 10.8366 300.092 9.29015 302.333 6.55798C304.605 3.79216 307.433 0.349365 312.959 0.349365C318.486 0.349365 321.314 3.79247 323.586 6.55808L323.587 6.55932C325.828 9.29149 327.241 10.8366 330.181 10.8366C333.123 10.8366 334.536 9.29015 336.783 6.55798C339.052 3.79216 341.881 0.349365 347.409 0.349365C352.935 0.349365 355.761 3.7909 358.033 6.5578L358.034 6.55932C360.276 9.29149 361.689 10.8366 364.628 10.8366C367.571 10.8366 368.984 9.29149 371.228 6.55932L371.229 6.55696C373.504 3.7902 376.332 0.349365 381.861 0.349365C387.394 0.349365 390.225 3.79216 392.497 6.55798C394.744 9.29015 396.159 10.8366 399.104 10.8366C402.052 10.8366 403.467 9.29015 405.714 6.55798L405.717 6.55355C407.992 3.78849 410.82 0.349365 416.35 0.349365C416.4 0.349365 416.45 0.350824 416.5 0.353702C416.55 0.350824 416.6 0.349365 416.65 0.349365C422.177 0.349365 425.003 3.79099 427.275 6.55791L427.276 6.55932C429.517 9.29149 430.93 10.8366 433.87 10.8366C436.81 10.8366 438.223 9.29149 440.464 6.55932L440.465 6.55808C442.737 3.79247 445.565 0.349365 451.092 0.349365C456.615 0.349365 459.441 3.79216 461.71 6.55932C463.951 9.29149 465.362 10.8366 468.299 10.8366C471.236 10.8366 472.649 9.29149 474.89 6.55932L474.895 6.55408C477.166 3.78916 479.992 0.349365 485.514 0.349365C491.041 0.349365 493.869 3.79239 496.141 6.55797L496.142 6.55932C498.383 9.29149 499.796 10.8366 502.736 10.8366C505.679 10.8366 507.092 9.29015 509.333 6.55798C511.605 3.79216 514.433 0.349365 519.959 0.349365C525.485 0.349365 528.314 3.79244 530.586 6.55803L530.587 6.55932C532.828 9.29149 534.241 10.8366 537.181 10.8366C540.123 10.8366 541.536 9.29015 543.783 6.55798C546.052 3.79216 548.881 0.349365 554.409 0.349365C559.935 0.349365 562.761 3.79082 565.033 6.5577L565.033 6.55791L565.034 6.55932C567.276 9.29149 568.689 10.8366 571.628 10.8366C574.571 10.8366 575.984 9.29149 578.228 6.55932L578.23 6.55686C580.504 3.79012 583.333 0.349365 588.861 0.349365C594.394 0.349365 597.225 3.79216 599.497 6.55798C601.744 9.29015 603.159 10.8366 606.104 10.8366C609.052 10.8366 610.467 9.29015 612.714 6.55798L612.717 6.55356C614.811 4.00773 617.375 0.89046 622.085 0.412169C622.267 0.371033 622.456 0.349365 622.65 0.349365C622.768 0.349365 622.884 0.35093 623 0.354019C623.115 0.35093 623.232 0.349365 623.35 0.349365C623.544 0.349365 623.734 0.37111 623.916 0.412387C628.622 0.891602 631.183 4.01067 633.275 6.55791L633.276 6.55932C635.517 9.29149 636.93 10.8366 639.87 10.8366C642.81 10.8366 644.223 9.29149 646.464 6.55932L646.465 6.55792C648.737 3.79234 651.565 0.349365 657.092 0.349365C662.615 0.349365 665.441 3.79216 667.71 6.55932C669.951 9.29149 671.362 10.8366 674.299 10.8366C677.236 10.8366 678.649 9.29149 680.891 6.55932L680.895 6.55419C683.166 3.78925 685.992 0.349365 691.514 0.349365C697.041 0.349365 699.869 3.79244 702.141 6.55803L702.142 6.55932C704.383 9.29149 705.796 10.8366 708.736 10.8366C711.679 10.8366 713.092 9.29015 715.333 6.55798C717.605 3.79216 720.433 0.349365 725.959 0.349365C731.485 0.349365 734.314 3.79244 736.586 6.55803L736.587 6.55932C738.828 9.29149 740.241 10.8366 743.181 10.8366C746.123 10.8366 747.536 9.29015 749.783 6.55798C752.052 3.79216 754.881 0.349365 760.409 0.349365C765.935 0.349365 768.761 3.79099 771.033 6.55791L771.034 6.55932C773.276 9.29149 774.689 10.8366 777.628 10.8366C780.571 10.8366 781.984 9.29149 784.228 6.55932L784.23 6.55686C786.504 3.79012 789.333 0.349365 794.861 0.349365C800.394 0.349365 803.225 3.79216 805.497 6.55798C807.744 9.29015 809.159 10.8366 812.104 10.8366C815.052 10.8366 816.467 9.29015 818.714 6.55798L818.717 6.55356C820.992 3.7885 823.82 0.349365 829.35 0.349365C830.815 0.349365 832 1.58355 832 3.10576C832 4.62797 830.815 5.86215 829.35 5.86215C826.402 5.86215 824.987 7.40858 822.741 10.1408L822.737 10.1453C820.463 12.9103 817.634 16.3494 812.104 16.3494C806.574 16.3494 803.743 12.9066 801.471 10.1408C799.224 7.40858 797.809 5.86215 794.861 5.86215C791.916 5.86215 790.503 7.40858 788.257 10.1408C785.985 12.9066 783.156 16.3494 777.628 16.3494C772.102 16.3494 769.276 12.9077 767.004 10.1408L767.003 10.1394C764.761 7.40724 763.348 5.86215 760.409 5.86215C757.466 5.86215 756.056 7.40724 753.812 10.1394L753.807 10.1457C751.533 12.9118 748.707 16.3494 743.181 16.3494C737.656 16.3494 734.827 12.9066 732.555 10.1408C730.314 7.40858 728.901 5.86215 725.959 5.86215C723.019 5.86215 721.606 7.40724 719.365 10.1394L719.364 10.1407C717.092 12.9063 714.263 16.3494 708.736 16.3494C703.211 16.3494 700.382 12.9066 698.11 10.1408C695.869 7.40858 694.456 5.86215 691.514 5.86215C688.577 5.86215 687.164 7.40724 684.922 10.1394L684.918 10.1445C682.647 12.9095 679.821 16.3494 674.299 16.3494C668.774 16.3494 665.948 12.9052 663.678 10.1381C661.437 7.40724 660.027 5.86215 657.092 5.86215C654.15 5.86215 652.737 7.40858 650.496 10.1408C648.224 12.9066 645.395 16.3494 639.87 16.3494C634.343 16.3494 631.517 12.9077 629.245 10.1408L629.244 10.1394C627.094 7.51784 625.706 5.98919 623 5.86972C620.286 5.98924 618.896 7.51913 616.741 10.1408L616.737 10.1453C614.463 12.9103 611.634 16.3494 606.104 16.3494C600.574 16.3494 597.743 12.9066 595.471 10.1408C593.224 7.40858 591.809 5.86215 588.861 5.86215C585.916 5.86215 584.503 7.40858 582.257 10.1408C579.985 12.9066 577.156 16.3494 571.628 16.3494C566.102 16.3494 563.276 12.9077 561.004 10.1408L561.003 10.1394C558.761 7.40724 557.348 5.86215 554.409 5.86215C551.466 5.86215 550.056 7.40724 547.812 10.1394L547.807 10.1457C545.533 12.9118 542.707 16.3494 537.181 16.3494C531.656 16.3494 528.827 12.9066 526.555 10.1408C524.314 7.40858 522.901 5.86215 519.959 5.86215C517.019 5.86215 515.606 7.40724 513.365 10.1394L513.364 10.1406C511.092 12.9062 508.263 16.3494 502.736 16.3494C497.211 16.3494 494.382 12.9066 492.11 10.1408C489.869 7.40858 488.456 5.86215 485.514 5.86215C482.577 5.86215 481.164 7.40724 478.922 10.1394L478.918 10.1446C476.647 12.9096 473.821 16.3494 468.299 16.3494C462.774 16.3494 459.948 12.9052 457.678 10.1381C455.437 7.40724 454.027 5.86215 451.092 5.86215C448.15 5.86215 446.737 7.40858 444.496 10.1408C442.224 12.9066 439.395 16.3494 433.87 16.3494C428.343 16.3494 425.517 12.9077 423.245 10.1408L423.244 10.1394C421.003 7.40724 419.59 5.86215 416.65 5.86215C416.6 5.86215 416.55 5.86069 416.5 5.85781C416.45 5.86069 416.4 5.86215 416.35 5.86215C413.402 5.86215 411.987 7.40858 409.741 10.1408L409.737 10.1452C407.463 12.9102 404.634 16.3494 399.104 16.3494C393.574 16.3494 390.743 12.9066 388.471 10.1408C386.224 7.40858 384.809 5.86215 381.861 5.86215C378.916 5.86215 377.503 7.40858 375.257 10.1408C372.985 12.9066 370.156 16.3494 364.628 16.3494C359.102 16.3494 356.276 12.9078 354.004 10.1409L354.003 10.1394C351.761 7.40724 350.348 5.86215 347.409 5.86215C344.466 5.86215 343.056 7.40724 340.812 10.1394L340.807 10.1457C338.533 12.9117 335.707 16.3494 330.181 16.3494C324.656 16.3494 321.827 12.9066 319.555 10.1408C317.314 7.40858 315.901 5.86215 312.959 5.86215C310.019 5.86215 308.606 7.40724 306.365 10.1394L306.364 10.1407C304.092 12.9063 301.263 16.3494 295.736 16.3494C290.211 16.3494 287.382 12.9066 285.11 10.1408C282.869 7.40858 281.456 5.86215 278.514 5.86215C275.577 5.86215 274.164 7.40724 271.922 10.1394L271.918 10.1446C269.647 12.9096 266.821 16.3494 261.299 16.3494C255.774 16.3494 252.948 12.9052 250.678 10.1381C248.437 7.40724 247.027 5.86215 244.092 5.86215C241.15 5.86215 239.737 7.40858 237.496 10.1408C235.224 12.9066 232.395 16.3494 226.87 16.3494C221.343 16.3494 218.517 12.9078 216.245 10.1409L216.244 10.1394C214.003 7.40724 212.59 5.86215 209.65 5.86215C209.6 5.86215 209.55 5.86069 209.5 5.85781C209.45 5.86069 209.4 5.86215 209.35 5.86215C206.402 5.86215 204.987 7.40858 202.741 10.1408L202.737 10.1452C200.463 12.9103 197.634 16.3494 192.104 16.3494C186.574 16.3494 183.743 12.9066 181.471 10.1408C179.224 7.40858 177.809 5.86215 174.861 5.86215C171.916 5.86215 170.503 7.40858 168.257 10.1408C165.985 12.9066 163.156 16.3494 157.628 16.3494C152.102 16.3494 149.276 12.9078 147.004 10.1409L147.003 10.1394C144.761 7.40724 143.348 5.86215 140.409 5.86215C137.466 5.86215 136.056 7.40724 133.812 10.1394L133.807 10.1457C131.533 12.9118 128.707 16.3494 123.181 16.3494C117.656 16.3494 114.827 12.9066 112.555 10.1408C110.314 7.40858 108.901 5.86215 105.959 5.86215C103.019 5.86215 101.606 7.40724 99.3647 10.1394L99.3636 10.1407C97.0916 12.9063 94.2631 16.3494 88.7362 16.3494C83.211 16.3494 80.3825 12.9066 78.1103 10.1408C75.8692 7.40858 74.4562 5.86215 71.5138 5.86215C68.5765 5.86215 67.1635 7.40724 64.9224 10.1394L64.9182 10.1446C62.6467 12.9095 59.8208 16.3494 54.2991 16.3494C48.774 16.3494 45.948 12.9052 43.6784 10.1381C41.4373 7.40724 40.0269 5.86215 37.0922 5.86215C34.1498 5.86215 32.7368 7.40858 30.4957 10.1408C28.2235 12.9066 25.395 16.3494 19.8698 16.3494C14.3431 16.3494 11.5171 12.9078 9.24514 10.1409L9.24395 10.1394C7.00283 7.40724 5.58984 5.86215 2.65 5.86215C1.18525 5.86215 0 4.62797 0 3.10576C0 1.58355 1.18525 0.349365 2.65 0.349365C8.17676 0.349365 11.0027 3.79096 13.2747 6.55787L13.2759 6.55932C15.517 9.29149 16.93 10.8366 19.8698 10.8366C22.8097 10.8366 24.2227 9.29149 26.4638 6.55932L26.4648 6.55802C28.7368 3.79243 31.5654 0.349365 37.0922 0.349365C42.6148 0.349365 45.4408 3.79216 47.7104 6.55932C49.9515 9.29149 51.3619 10.8366 54.2991 10.8366C57.2364 10.8366 58.6494 9.29149 60.8905 6.55932L60.8947 6.55415C63.1662 3.78922 65.9921 0.349365 71.5138 0.349365C77.0406 0.349365 79.8692 3.79243 82.1412 6.55803L82.1422 6.55932C84.3834 9.29149 85.7963 10.8366 88.7362 10.8366C91.6786 10.8366 93.0916 9.29015 95.3327 6.55798C97.6049 3.79216 100.433 0.349365 105.959 0.349365C111.485 0.349365 114.314 3.79242 116.586 6.55801L116.587 6.55932C118.828 9.29149 120.241 10.8366 123.181 10.8366C126.123 10.8366 127.536 9.29015 129.783 6.55798C132.052 3.79216 134.881 0.349365 140.409 0.349365C145.935 0.349365 148.761 3.79095 151.033 6.55786L151.034 6.55932C153.276 9.29149 154.689 10.8366 157.628 10.8366C160.571 10.8366 161.984 9.29149 164.228 6.55932L164.23 6.55691C166.504 3.79016 169.332 0.349365 174.861 0.349365C180.394 0.349365 183.225 3.79216 185.497 6.55798C187.744 9.29015 189.159 10.8366 192.104 10.8366C195.052 10.8366 196.467 9.29015 198.714 6.55798L198.717 6.55353Z" fill="var(--theme-white)"></path></svg>